# xmcd
#
# Track frame offsets: 
#        150
#        14206
#        28357
#        39693
#        52009
#        64228
#        75174
#        85910
#        97673
#        111065
#        124645
#        139172
#        153071
#        169358
#        186246
#        200878
#        213025
#        227630
#        243066
#
# Disc length: 3424 seconds
#
# Revision: 1
# Processed by: cddbd v1.5.2PL0 Copyright (c) Steve Scherf et al.
# Submitted via: ExactAudioCopyFreeDBPlugin 1.0
#
DISCID=fe0d5e13
DTITLE=Lester Young - Swing Time 080 - Lester Young 08 - 1948-50
DYEAR=1948
DGENRE=Jazz
TTITLE0=Tea For Two
TTITLE1=East Of The Sun
TTITLE2=The Sheik Of Araby
TTITLE3=Something To Remember You By
TTITLE4=Crazy Over J-Z
TTITLE5=Ding Dong
TTITLE6=Blues 'n' Bells
TTITLE7=June Bug
TTITLE8=Too Marvelous For Words
TTITLE9=Too Marvelous For Words
TTITLE10=Deed I Do
TTITLE11=Encore
TTITLE12=Polka Dots And Moonbeams
TTITLE13=Up 'n' Adam
TTITLE14=Three Little Words
TTITLE15=Count Every Star
TTITLE16=It All Depends On You
TTITLE17=Neenah
TTITLE18=Jeepers Creepers
EXTD=YEAR: 2006
EXTT0=
EXTT1=
EXTT2=
EXTT3=
EXTT4=
EXTT5=
EXTT6=
EXTT7=
EXTT8=
EXTT9=
EXTT10=
EXTT11=
EXTT12=
EXTT13=
EXTT14=
EXTT15=
EXTT16=
EXTT17=
EXTT18=
PLAYORDER=
